<svg width="52" height="64" viewBox="0 0 52 64" fill="none" xmlns="http://www.w3.org/2000/svg">
<path fill-rule="evenodd" clip-rule="evenodd" d="M23.0274 3.63005C21.5547 3.48279 20.5097 3.73989 19.9361 4.2862C19.6113 4.59558 19.5656 4.79737 19.5569 4.87771C19.5468 4.97106 19.563 5.13625 19.7208 5.39562C19.9635 5.79474 20.43 6.22666 21.0159 6.5986L42.5694 15.4116C43.1332 15.6421 43.5017 16.1908 43.5017 16.8V54C43.5017 54.8284 42.8301 55.5 42.0017 55.5C41.1732 55.5 40.5017 54.8284 40.5017 54V17.8072L21.1631 9.89989C20.9677 9.89496 20.7701 9.85152 20.5809 9.76554C20.279 9.62832 19.9682 9.46777 19.6595 9.28504L18.934 8.98839C18.9071 8.97743 18.8806 8.96568 18.8545 8.95318C17.8284 8.46243 16.3468 7.97197 14.9274 7.83003C13.4548 7.68277 12.4098 7.93987 11.8361 8.48618C11.5113 8.79556 11.4657 8.99735 11.4569 9.07769C11.4468 9.17104 11.4631 9.33623 11.6208 9.5956C11.9059 10.0644 12.4999 10.5785 13.2333 10.9875L34.5694 19.7116C35.1332 19.9421 35.5017 20.4908 35.5017 21.1V58C35.5017 58.8284 34.8301 59.5 34.0017 59.5C33.1732 59.5 32.5017 58.8284 32.5017 58V22.1072L12.8792 14.0838C12.7447 14.0635 12.6108 14.0246 12.481 13.9655C12.3056 13.8858 12.1273 13.7983 11.9481 13.7031L10.9339 13.2884C10.9071 13.2774 10.8806 13.2657 10.8545 13.2532C9.81342 12.7553 8.3295 12.2436 6.91605 12.0914C5.45286 11.9338 4.43047 12.1925 3.86232 12.7606C3.55006 13.0729 3.50278 13.271 3.49435 13.351C3.49853 13.3934 3.50095 13.4363 3.50153 13.4797C3.51946 13.5727 3.56808 13.7029 3.6846 13.8765C4.07065 14.4516 4.92122 15.0759 5.90088 15.5246L26.5772 24.1148C27.1369 24.3473 27.5017 24.8939 27.5017 25.5V62C27.5017 62.5005 27.252 62.9681 26.836 63.2465C26.4201 63.5249 25.8926 63.5775 25.4299 63.3867L4.37283 54.7044L4.36562 54.7019C4.32391 54.687 4.27131 54.6672 4.20937 54.6419C4.08572 54.5914 3.92343 54.5181 3.73558 54.4166C3.3612 54.2143 2.87479 53.8944 2.391 53.4106C1.39267 52.4123 0.501659 50.8089 0.501659 48.4V13.6467C0.489639 13.4857 0.488771 13.3207 0.500714 13.1519C0.567629 12.2064 1.02137 11.3589 1.741 10.6393C3.27285 9.10746 5.45046 8.91617 7.23727 9.1086C7.64745 9.15277 8.0566 9.21892 8.45876 9.30173C8.44967 9.12316 8.45421 8.94023 8.47451 8.75351C8.57515 7.8276 9.04202 7.00439 9.76718 6.31377C11.2936 4.86008 13.4486 4.66719 15.2259 4.84492C15.6727 4.8896 16.1188 4.95969 16.5565 5.04899C16.5507 4.88719 16.5562 4.7219 16.5745 4.55353C16.6751 3.62762 17.142 2.80441 17.8672 2.11379C19.3935 0.660099 21.5485 0.467205 23.3259 0.644939C25.1364 0.825991 26.9351 1.42424 28.2068 2.02677L50.5662 11.1103C51.1317 11.34 51.5016 11.8896 51.5016 12.5V50C51.5016 50.8284 50.8301 51.5 50.0016 51.5C49.1732 51.5 48.5016 50.8284 48.5016 50V13.5097L27.0371 4.78969C27.0092 4.77836 26.9816 4.76619 26.9545 4.7532C25.9283 4.26245 24.4468 3.77199 23.0274 3.63005ZM3.50166 48.4V17.641C3.90013 17.8845 4.30174 18.0932 4.68095 18.2655C4.69592 18.2723 4.71099 18.2789 4.72616 18.2852L24.5017 26.5011V59.759L5.47344 51.9132C5.43936 51.8992 5.40477 51.8864 5.36975 51.8749C5.36562 51.8733 5.35713 51.8701 5.34473 51.8651C5.30978 51.8508 5.24551 51.8225 5.16149 51.7771C4.99212 51.6856 4.75353 51.5305 4.51232 51.2893C4.06065 50.8376 3.50166 49.991 3.50166 48.4Z" fill="url(#paint0_linear)"/>
<defs>
<linearGradient id="paint0_linear" x1="-11.5491" y1="22.1665" x2="29.7471" y2="14.8839" gradientUnits="userSpaceOnUse">
<stop stop-color="#C14BFF"/>
<stop offset="1" stop-color="#5C8FFF"/>
</linearGradient>
</defs>
</svg>
