<svg width="335" height="92" viewBox="0 0 335 92" fill="none" xmlns="http://www.w3.org/2000/svg">
<rect width="335" height="92" fill="transparent"/>
<path d="M142.48 26.9121V66.0001H134.64V40.5761L124.168 66.0001H118.232L107.704 40.5761V66.0001H99.864V26.9121H108.768L121.2 55.9761L133.632 26.9121H142.48Z" fill="white"/>
<path d="M147.215 50.3761C147.215 47.2401 147.831 44.4588 149.063 42.0321C150.333 39.6054 152.031 37.7388 154.159 36.4321C156.325 35.1254 158.733 34.4721 161.383 34.4721C163.698 34.4721 165.714 34.9388 167.431 35.8721C169.186 36.8054 170.586 37.9814 171.631 39.4001V34.9761H179.527V66.0001H171.631V61.4641C170.623 62.9201 169.223 64.1334 167.431 65.1041C165.677 66.0374 163.642 66.5041 161.327 66.5041C158.714 66.5041 156.325 65.8321 154.159 64.4881C152.031 63.1441 150.333 61.2588 149.063 58.8321C147.831 56.3681 147.215 53.5494 147.215 50.3761ZM171.631 50.4881C171.631 48.5841 171.258 46.9601 170.511 45.6161C169.765 44.2348 168.757 43.1894 167.487 42.4801C166.218 41.7334 164.855 41.3601 163.399 41.3601C161.943 41.3601 160.599 41.7148 159.367 42.4241C158.135 43.1334 157.127 44.1788 156.343 45.5601C155.597 46.9041 155.223 48.5094 155.223 50.3761C155.223 52.2428 155.597 53.8854 156.343 55.3041C157.127 56.6854 158.135 57.7494 159.367 58.4961C160.637 59.2428 161.981 59.6161 163.399 59.6161C164.855 59.6161 166.218 59.2614 167.487 58.5521C168.757 57.8054 169.765 56.7601 170.511 55.4161C171.258 54.0348 171.631 52.3921 171.631 50.4881Z" fill="white"/>
<path d="M198.056 66.5041C195.518 66.5041 193.24 66.0561 191.224 65.1601C189.208 64.2268 187.603 62.9761 186.408 61.4081C185.251 59.8401 184.616 58.1041 184.504 56.2001H192.4C192.55 57.3948 193.128 58.3841 194.136 59.1681C195.182 59.9521 196.47 60.3441 198 60.3441C199.494 60.3441 200.651 60.0454 201.472 59.4481C202.331 58.8508 202.76 58.0854 202.76 57.1521C202.76 56.1441 202.238 55.3974 201.192 54.9121C200.184 54.3894 198.56 53.8294 196.32 53.2321C194.006 52.6721 192.102 52.0934 190.608 51.4961C189.152 50.8988 187.883 49.9841 186.8 48.7521C185.755 47.5201 185.232 45.8588 185.232 43.7681C185.232 42.0508 185.718 40.4828 186.688 39.0641C187.696 37.6454 189.115 36.5254 190.944 35.7041C192.811 34.8828 194.995 34.4721 197.496 34.4721C201.192 34.4721 204.142 35.4054 206.344 37.2721C208.547 39.1014 209.76 41.5841 209.984 44.7201H202.48C202.368 43.4881 201.846 42.5174 200.912 41.8081C200.016 41.0614 198.803 40.6881 197.272 40.6881C195.854 40.6881 194.752 40.9494 193.968 41.4721C193.222 41.9948 192.848 42.7228 192.848 43.6561C192.848 44.7014 193.371 45.5041 194.416 46.0641C195.462 46.5868 197.086 47.1281 199.288 47.6881C201.528 48.2481 203.376 48.8268 204.832 49.4241C206.288 50.0214 207.539 50.9548 208.584 52.2241C209.667 53.4561 210.227 55.0988 210.264 57.1521C210.264 58.9441 209.76 60.5494 208.752 61.9681C207.782 63.3868 206.363 64.5068 204.496 65.3281C202.667 66.1121 200.52 66.5041 198.056 66.5041Z" fill="white"/>
<path d="M224.828 41.4161V56.4241C224.828 57.4694 225.071 58.2348 225.556 58.7201C226.079 59.1681 226.937 59.3921 228.132 59.3921H231.772V66.0001H226.844C220.236 66.0001 216.932 62.7894 216.932 56.3681V41.4161H213.236V34.9761H216.932V27.3041H224.828V34.9761H231.772V41.4161H224.828Z" fill="white"/>
<path d="M265.251 49.8161C265.251 50.9361 265.176 51.9441 265.027 52.8401H242.347C242.534 55.0801 243.318 56.8348 244.699 58.1041C246.08 59.3734 247.779 60.0081 249.795 60.0081C252.707 60.0081 254.779 58.7574 256.011 56.2561H264.467C263.571 59.2428 261.854 61.7068 259.315 63.6481C256.776 65.5521 253.659 66.5041 249.963 66.5041C246.976 66.5041 244.288 65.8508 241.899 64.5441C239.547 63.2001 237.699 61.3148 236.355 58.8881C235.048 56.4614 234.395 53.6614 234.395 50.4881C234.395 47.2774 235.048 44.4588 236.355 42.0321C237.662 39.6054 239.491 37.7388 241.843 36.4321C244.195 35.1254 246.902 34.4721 249.963 34.4721C252.912 34.4721 255.544 35.1068 257.859 36.3761C260.211 37.6454 262.022 39.4561 263.291 41.8081C264.598 44.1228 265.251 46.7921 265.251 49.8161ZM257.131 47.5761C257.094 45.5601 256.366 43.9548 254.947 42.7601C253.528 41.5281 251.792 40.9121 249.739 40.9121C247.798 40.9121 246.155 41.5094 244.811 42.7041C243.504 43.8614 242.702 45.4854 242.403 47.5761H257.131Z" fill="white"/>
<path d="M277.813 39.7921C278.821 38.1494 280.128 36.8614 281.733 35.9281C283.376 34.9948 285.243 34.5281 287.333 34.5281V42.7601H285.261C282.797 42.7601 280.931 43.3388 279.661 44.4961C278.429 45.6534 277.813 47.6694 277.813 50.5441V66.0001H269.973V34.9761H277.813V39.7921Z" fill="white"/>
<path d="M303.486 66.5041C300.947 66.5041 298.67 66.0561 296.654 65.1601C294.638 64.2268 293.033 62.9761 291.838 61.4081C290.681 59.8401 290.046 58.1041 289.934 56.2001H297.83C297.979 57.3948 298.558 58.3841 299.566 59.1681C300.611 59.9521 301.899 60.3441 303.43 60.3441C304.923 60.3441 306.081 60.0454 306.902 59.4481C307.761 58.8508 308.19 58.0854 308.19 57.1521C308.19 56.1441 307.667 55.3974 306.622 54.9121C305.614 54.3894 303.99 53.8294 301.75 53.2321C299.435 52.6721 297.531 52.0934 296.038 51.4961C294.582 50.8988 293.313 49.9841 292.23 48.7521C291.185 47.5201 290.662 45.8588 290.662 43.7681C290.662 42.0508 291.147 40.4828 292.118 39.0641C293.126 37.6454 294.545 36.5254 296.374 35.7041C298.241 34.8828 300.425 34.4721 302.926 34.4721C306.622 34.4721 309.571 35.4054 311.774 37.2721C313.977 39.1014 315.19 41.5841 315.414 44.7201H307.91C307.798 43.4881 307.275 42.5174 306.342 41.8081C305.446 41.0614 304.233 40.6881 302.702 40.6881C301.283 40.6881 300.182 40.9494 299.398 41.4721C298.651 41.9948 298.278 42.7228 298.278 43.6561C298.278 44.7014 298.801 45.5041 299.846 46.0641C300.891 46.5868 302.515 47.1281 304.718 47.6881C306.958 48.2481 308.806 48.8268 310.262 49.4241C311.718 50.0214 312.969 50.9548 314.014 52.2241C315.097 53.4561 315.657 55.0988 315.694 57.1521C315.694 58.9441 315.19 60.5494 314.182 61.9681C313.211 63.3868 311.793 64.5068 309.926 65.3281C308.097 66.1121 305.95 66.5041 303.486 66.5041Z" fill="white"/>
<path fill-rule="evenodd" clip-rule="evenodd" d="M45.0257 17.6301C43.553 17.4828 42.508 17.7399 41.9344 18.2862C41.6096 18.5956 41.5639 18.7974 41.5552 18.8777C41.5451 18.9711 41.5613 19.1363 41.7191 19.3956C41.9618 19.7947 42.4283 20.2267 43.0142 20.5986L64.5677 29.4116C65.1315 29.6421 65.5 30.1908 65.5 30.8V68C65.5 68.8284 64.8284 69.5 64 69.5C63.1715 69.5 62.5 68.8284 62.5 68V31.8072L43.1614 23.8999C42.966 23.895 42.7684 23.8515 42.5792 23.7655C42.2773 23.6283 41.9665 23.4678 41.6577 23.285L40.9322 22.9884C40.9054 22.9774 40.8789 22.9657 40.8528 22.9532C39.8267 22.4624 38.3451 21.972 36.9257 21.83C35.453 21.6828 34.4081 21.9399 33.8344 22.4862C33.5096 22.7956 33.464 22.9974 33.4552 23.0777C33.4451 23.171 33.4614 23.3362 33.6191 23.5956C33.9042 24.0644 34.4982 24.5785 35.2316 24.9875L56.5677 33.7116C57.1315 33.9421 57.5 34.4908 57.5 35.1V72C57.5 72.8284 56.8284 73.5 56 73.5C55.1715 73.5 54.5 72.8284 54.5 72V36.1072L34.8775 28.0838C34.743 28.0635 34.6091 28.0246 34.4792 27.9655C34.3039 27.8858 34.1256 27.7983 33.9464 27.7031L32.9322 27.2884C32.9054 27.2774 32.8789 27.2657 32.8528 27.2532C31.8117 26.7553 30.3278 26.2436 28.9143 26.0914C27.4511 25.9338 26.4288 26.1925 25.8606 26.7606C25.5484 27.0729 25.5011 27.271 25.4926 27.351C25.4968 27.3934 25.4992 27.4363 25.4998 27.4797C25.5178 27.5727 25.5664 27.7029 25.6829 27.8765C26.0689 28.4516 26.9195 29.0759 27.8992 29.5246L48.5754 38.1148C49.1352 38.3473 49.5 38.8939 49.5 39.5V76C49.5 76.5005 49.2503 76.9681 48.8343 77.2465C48.4184 77.5249 47.8909 77.5775 47.4282 77.3867L26.3711 68.7044L26.3639 68.7019C26.3222 68.687 26.2696 68.6672 26.2077 68.6419C26.084 68.5914 25.9217 68.5181 25.7339 68.4166C25.3595 68.2143 24.8731 67.8944 24.3893 67.4106C23.391 66.4123 22.5 64.8089 22.5 62.4V27.6467C22.4879 27.4857 22.4871 27.3207 22.499 27.1519C22.5659 26.2064 23.0197 25.3589 23.7393 24.6393C25.2711 23.1075 27.4488 22.9162 29.2356 23.1086C29.6457 23.1528 30.0549 23.2189 30.4571 23.3017C30.448 23.1232 30.4525 22.9402 30.4728 22.7535C30.5734 21.8276 31.0403 21.0044 31.7655 20.3138C33.2918 18.8601 35.4469 18.6672 37.2242 18.8449C37.671 18.8896 38.1171 18.9597 38.5547 19.049C38.549 18.8872 38.5545 18.7219 38.5728 18.5535C38.6734 17.6276 39.1403 16.8044 39.8654 16.1138C41.3918 14.6601 43.5468 14.4672 45.3242 14.6449C47.1347 14.826 48.9334 15.4242 50.205 16.0268L72.5645 25.1103C73.13 25.34 73.4999 25.8896 73.4999 26.5V64C73.4999 64.8284 72.8284 65.5 71.9999 65.5C71.1715 65.5 70.4999 64.8284 70.4999 64V27.5097L49.0354 18.7897C49.0075 18.7784 48.9799 18.7662 48.9527 18.7532C47.9266 18.2624 46.4451 17.772 45.0257 17.6301ZM25.4999 62.4V31.641C25.8984 31.8845 26.3 32.0932 26.6792 32.2655C26.6942 32.2723 26.7093 32.2789 26.7245 32.2852L46.5 40.5011V73.759L27.4717 65.9132C27.4376 65.8992 27.4031 65.8864 27.368 65.8749C27.3639 65.8733 27.3554 65.8701 27.343 65.8651C27.3081 65.8508 27.2438 65.8225 27.1598 65.7771C26.9904 65.6856 26.7518 65.5305 26.5106 65.2893C26.0589 64.8376 25.4999 63.991 25.4999 62.4Z" fill="url(#paint0_linear)"/>
<defs>
<linearGradient id="paint0_linear" x1="10.4492" y1="36.1665" x2="51.7454" y2="28.8839" gradientUnits="userSpaceOnUse">
<stop stop-color="#C14BFF"/>
<stop offset="1" stop-color="#5C8FFF"/>
</linearGradient>
</defs>
</svg>
